<?xml version="1.0" encoding="utf-8"?>
<!-- Generator: Adobe Illustrator 16.2.0, SVG Export Plug-In . SVG Version: 6.00 Build 0)  -->
<!DOCTYPE svg PUBLIC "-//W3C//DTD SVG 1.1//EN" "http://www.w3.org/Graphics/SVG/1.1/DTD/svg11.dtd">
<svg version="1.1" id="Layer_1" xmlns="http://www.w3.org/2000/svg" xmlns:xlink="http://www.w3.org/1999/xlink" x="0px" y="0px"
	 width="811.115px" height="314.641px" viewBox="0 0 811.115 314.641" enable-background="new 0 0 811.115 314.641"
	 xml:space="preserve">
<linearGradient id="SVGID_1_" gradientUnits="userSpaceOnUse" x1="405.4229" y1="0.5" x2="405.4229" y2="314.1411">
	<stop  offset="0" style="stop-color:#E6E7E8"/>
	<stop  offset="0.1691" style="stop-color:#DEDFE1"/>
	<stop  offset="0.4524" style="stop-color:#C9CACC"/>
	<stop  offset="0.8131" style="stop-color:#A6A8AB"/>
	<stop  offset="1" style="stop-color:#939598"/>
</linearGradient>
<path fill="url(#SVGID_1_)" stroke="#000000" stroke-miterlimit="10" d="M0.232,314.141h810.383V0.5h-13.576l-29.937,5.221
	l-31.678,10.095l-29.937,11.836L675.55,39.836l-30.285,11.835l-30.285,12.879l-32.374,11.487l-29.937,12.88l-31.329,9.747
	L491.404,110.5l-32.025,13.576l-30.285,10.792l-30.633,13.924l-29.937,11.488l-30.981,12.88l-30.633,10.442l-30.285,11.488
	l-29.936,11.835l-32.026,12.184l-29.937,10.443l-30.981,10.791l-30.633,12.88L91.783,268.19l-30.981,16.014l-30.633,14.271
	L0.232,314.141"/>
</svg>
