<?xml version="1.0" encoding="utf-8"?>
<!-- Generator: Adobe Illustrator 16.2.0, SVG Export Plug-In . SVG Version: 6.00 Build 0)  -->
<!DOCTYPE svg PUBLIC "-//W3C//DTD SVG 1.1//EN" "http://www.w3.org/Graphics/SVG/1.1/DTD/svg11.dtd">
<svg version="1.1" id="Layer_1" xmlns="http://www.w3.org/2000/svg" xmlns:xlink="http://www.w3.org/1999/xlink" x="0px" y="0px"
	 width="96.322px" height="56.214px" viewBox="0 0 96.322 56.214" enable-background="new 0 0 96.322 56.214" xml:space="preserve">
<g>
	<g>
		<circle fill="#FFFFFF" stroke="#000000" stroke-miterlimit="10" cx="19.5" cy="36.714" r="19"/>
		<line fill="none" stroke="#000000" stroke-miterlimit="10" x1="19.5" y1="55.714" x2="19.5" y2="17.714"/>
		<line fill="none" stroke="#000000" stroke-miterlimit="10" x1="0.5" y1="36.714" x2="38.5" y2="36.714"/>
		<line fill="none" stroke="#000000" stroke-miterlimit="10" x1="32.925" y1="50.158" x2="6.092" y2="23.325"/>
		<line fill="none" stroke="#000000" stroke-miterlimit="10" x1="32.925" y1="23.325" x2="6.092" y2="49.311"/>
	</g>
	<g>
		<circle fill="#FFFFFF" stroke="#000000" stroke-miterlimit="10" cx="76.822" cy="36.318" r="19"/>
		<line fill="none" stroke="#000000" stroke-miterlimit="10" x1="76.822" y1="55.318" x2="76.822" y2="17.318"/>
		<line fill="none" stroke="#000000" stroke-miterlimit="10" x1="57.822" y1="36.318" x2="95.822" y2="36.318"/>
		<line fill="none" stroke="#000000" stroke-miterlimit="10" x1="90.247" y1="49.762" x2="63.414" y2="22.929"/>
		<line fill="none" stroke="#000000" stroke-miterlimit="10" x1="90.247" y1="22.929" x2="63.414" y2="48.915"/>
	</g>
	<polyline fill="none" stroke="#000000" stroke-width="3" stroke-miterlimit="10" points="67.121,16.835 47.5,36.456 19.366,36.456 
			"/>
	<line fill="none" stroke="#000000" stroke-width="3" stroke-miterlimit="10" x1="47.5" y1="36.456" x2="34.125" y2="3.339"/>
	<polyline fill="none" stroke="#000000" stroke-width="3" stroke-miterlimit="10" points="76.615,36.13 64,11 37.75,11 37.219,11 
		19.366,36.456 	"/>
	<polyline fill="none" stroke="#000000" stroke-width="2" stroke-miterlimit="10" points="69.625,4.839 62.375,6.464 64,11 	"/>
	<polygon fill="none" stroke="#000000" stroke-width="2" stroke-linejoin="round" stroke-miterlimit="10" points="43.443,3.735 
		28.32,1 28.536,4.723 	"/>
	<path fill="none" stroke="#000000" stroke-width="2" stroke-linejoin="round" stroke-miterlimit="10" d="M70.25,12.714
		c5.389,0,7.25-1.685,7.25-4.794c0-5.134-5.375-3.956-7.875-3.081"/>
</g>
</svg>
